<svg
   {{ with .size }}
	height="{{ . }}"
	{{ end }}
   style="enable-background:new 0 0 67 67;"
   viewBox="0 0 863.55502 863.55685"
   version="1.1"
   width="{{ .size }}"
   id="svg3"
   xml:space="preserve"
	xmlns="http://www.w3.org/2000/svg"
	xmlns:xlink="http://www.w3.org/1999/xlink">
  <path
     id="path846"
     style="fill-rule:evenodd;clip-rule:evenodd;"
     d="M 414.06188,0 A 414.06143,414.06143 0 0 0 0,414.06188 414.06143,414.06143 0 0 0 414.06188,828.12376 414.06143,414.06143 0 0 0 828.12193,414.06188 414.06143,414.06143 0 0 0 414.06188,0 Z m 225.99975,172.67029 c 3.68649,-0.32705 7.94631,0.81653 13.14331,3.40027 12.5814,6.25493 28.8861,22.59014 47.8125,47.90039 38.0781,50.92197 57.71703,106.94288 62.43713,178.10302 4.0104,60.46144 -10.65793,121.66314 -41.30493,172.34802 -21.15469,34.98623 -53.42862,70.83661 -70.61462,78.43872 -4.4918,1.987 -10.93708,2.95232 -14.56238,2.18261 -3.6719,-0.77949 -10.2386,-7.84084 -10.979,-11.80664 -1.1931,-6.39039 2.60873,-12.08245 20.33203,-30.43945 8.7214,-9.0333 19.45336,-20.90783 23.84765,-26.38733 32.15241,-40.09154 50.0156,-84.7011 54.7815,-136.80541 1.4691,-16.06232 0.71019,-57.44665 -1.33851,-72.9657 -4.2915,-32.50699 -12.21372,-59.1028 -25.93322,-87.06665 -13.128,-26.75819 -26.70862,-45.73656 -49.64722,-69.375 -15.40369,-15.87371 -19.94451,-21.66909 -21.49292,-27.43469 -1.5177,-5.65161 -0.42664,-9.84934 3.81226,-14.66492 2.90715,-3.30269 6.01993,-5.1002 9.70642,-5.42724 z m -455.3485,0.13916 c 4.61943,-0.40081 8.60026,1.15319 12.49878,4.61426 3.18001,2.82319 3.91033,4.13753 4.31762,7.75634 0.76691,6.81375 -2.72445,12.13681 -18.96605,28.91236 -22.69691,23.44307 -33.16904,36.49296 -44.76746,55.79223 -26.33807,43.82544 -37.60863,89.91617 -35.99304,147.18933 0.86072,30.51293 4.12663,53.0037 11.3269,78.0194 6.48504,22.53075 14.26777,40.69606 25.92407,60.50537 11.70369,19.8898 21.5396,32.4752 41.20605,52.72523 17.25352,17.7655 21.5387,23.93474 21.5387,31.01073 0,7.03911 -4.96861,13.4055 -11.98242,15.3534 -3.87451,1.0761 -4.1378,1.07962 -8.28369,0.0897 -12.14838,-2.9002 -29.72869,-18.15186 -49.22241,-42.70385 -39.571001,-49.83894 -61.057205,-105.73949 -67.384645,-175.3125 -1.21782,-13.3906 -1.205217,-47.26935 0.02197,-59.66675 5.78591,-58.45296 26.239291,-108.79291 63.770145,-156.94519 11.49299,-14.74558 30.54148,-34.06268 39.6643,-40.2246 6.45406,-4.35931 11.71175,-6.71467 16.33118,-7.11548 z m 175.15319,25.57983 c 8.72425,0.45705 20.14147,3.4979 30.95948,8.62244 19.58504,9.27752 34.01986,22.59915 43.41979,40.0708 7.24481,13.46592 10.1649,23.7834 15.07874,53.27087 5.45287,32.72211 10.85892,43.10485 21.78956,41.84876 5.79214,-0.66562 9.40785,-2.86364 11.84691,-7.20338 3.88524,-6.91286 2.21822,-16.3757 -5.63964,-32.0343 -6.42005,-12.79344 -6.02154,-16.65817 1.50878,-14.66674 3.90048,1.03149 16.55716,11.36807 25.31983,20.67992 21.92392,23.29796 32.83511,44.46612 38.08227,73.87757 2.75217,15.42644 2.98135,41.00657 0.48706,54.375 -3.14674,16.86545 -9.52497,32.78333 -18.58886,46.39709 -10.10669,15.18003 -31.19149,34.38646 -46.51978,42.3761 -6.92209,3.60805 -9.32367,3.82616 -12.71667,1.15723 -4.22027,-3.31967 -3.32889,-5.62668 6.00036,-15.5365 14.01697,-14.88926 21.17343,-25.47453 25.32532,-37.45788 6.40578,-18.48866 3.21604,-44.26463 -7.50915,-60.69398 -4.44225,-6.80482 -10.95252,-12.80456 -13.89405,-12.80456 -1.6103,0 -1.34313,2.12405 1.64246,13.06091 1.04617,3.83232 1.90246,8.51551 1.90246,10.40771 0,10.00779 -14.1255,17.26232 -26.5686,13.64503 -10.112,-2.93966 -14.57049,-12.10931 -13.2312,-27.21863 0.41387,-4.66907 0.78351,-13.15358 0.82214,-18.85437 0.0682,-10.05202 -0.0278,-10.56113 -3.20984,-16.83655 -6.2022,-12.2312 -20.54791,-24.8291 -28.27148,-24.8291 -3.33075,0 -3.60352,0.19991 -3.60352,2.64771 0,1.64377 0.92437,3.51157 2.43531,4.92187 8.00106,7.46811 9.50543,22.77224 3.56872,36.28235 -3.66921,8.35 -7.80553,13.07793 -21.93603,25.07263 -18.59248,15.78227 -24.58354,23.29725 -28.29895,35.49682 -1.7187,5.6434 -1.89732,7.93993 -1.41358,18.28125 0.81217,17.36174 4.35133,28.87029 12.62146,41.04859 6.34961,9.35021 13.78486,15.28299 23.88245,19.05578 4.85613,1.81441 5.39062,2.28272 5.39062,4.72596 0,2.8321 -2.15477,4.69423 -5.33019,4.60693 -0.93624,-0.026 -5.49793,-1.42855 -10.13856,-3.11646 -31.25225,-11.36715 -57.25468,-33.51834 -70.56518,-60.11718 -7.39978,-14.78725 -11.69466,-32.69699 -11.69128,-48.75 0.005,-21.70289 8.49183,-42.38495 34.34692,-83.69751 19.25748,-30.77058 22.53774,-36.37709 28.20008,-48.19519 7.53515,-15.72687 10.01911,-25.06901 10.177,-38.26538 0.15088,-12.61133 -1.73891,-20.09235 -7.54761,-29.87915 -4.12329,-6.94714 -13.39898,-17.40435 -17.16613,-19.35242 -6.13981,-3.17502 -7.41229,-7.48872 -3.05237,-10.34545 2.58578,-1.69428 6.85041,-2.34882 12.08495,-2.07459 z m 66.46362,380.31555 c 82.93321,0 165.86624,0.39625 169.01184,1.18835 6.43751,1.6209 12.762,8.21558 14.1687,14.77478 1.84361,8.59633 -2.01954,17.39523 -9.52514,21.69434 l -3.9679,2.27416 -168.28125,0.15748 c -92.55468,0.088 -169.43581,-0.18947 -170.84654,-0.61708 -10.28745,-3.11839 -16.25208,-13.40071 -13.77137,-23.74144 1.53405,-6.39471 7.95474,-12.96974 14.19983,-14.54224 3.14559,-0.7921 86.07863,-1.18835 169.01183,-1.18835 z" />
</svg>
