<svg
   {{ with .size }}
	height="{{ . }}"
	{{ end }}
   style="enable-background:new 0 0 67 67;"
   viewBox="0 0 300 300"
   version="1.1"
   width="{{ .size }}"
   id="svg3"
   xml:space="preserve"
	xmlns="http://www.w3.org/2000/svg"
	xmlns:xlink="http://www.w3.org/1999/xlink">
  <path
     id="path849"
     style="fill-rule:evenodd;clip-rule:evenodd;"
     d="M 150 0 A 150 150 0 0 0 0 150 A 150 150 0 0 0 150 300 A 150 150 0 0 0 300 150 A 150 150 0 0 0 150 0 z M 153.50781 56.009766 L 273.97852 114.14844 L 273.97852 126.99609 L 147.49414 204.72852 L 52.175781 157.98047 L 52.357422 150.78125 L 147.12891 197.4375 L 267.59961 123.44336 L 267.59961 118.1582 L 153.87305 63.298828 L 27.023438 141.75977 L 27.023438 176.84375 L 147.12891 236.25781 L 269.63281 161.11914 L 263.04297 159.98438 L 263.77148 155.51953 L 279.35547 158.16211 L 276.80273 174.10938 L 272.33789 173.38086 L 273.44141 166.42578 L 147.49414 243.54883 L 20.644531 180.85352 L 20.644531 138.20508 L 153.50781 56.009766 z " />
</svg>