<?xml version="1.0" encoding="UTF-8" standalone="no"?>
<svg
   viewBox="0 0 300 300"
   fill="#222222"
   version="1.1"
   id="svg6"
   sodipodi:docname="lbry_original.svg"
   width="300"
   height="300"
   inkscape:version="1.1.2 (0a00cf5339, 2022-02-04, custom)"
   xmlns:inkscape="http://www.inkscape.org/namespaces/inkscape"
   xmlns:sodipodi="http://sodipodi.sourceforge.net/DTD/sodipodi-0.dtd"
   xmlns="http://www.w3.org/2000/svg"
   xmlns:svg="http://www.w3.org/2000/svg">
  <defs
     id="defs10" />
  <sodipodi:namedview
     id="namedview8"
     pagecolor="#ffffff"
     bordercolor="#666666"
     borderopacity="1.0"
     inkscape:pageshadow="2"
     inkscape:pageopacity="0.0"
     inkscape:pagecheckerboard="0"
     showgrid="false"
     inkscape:zoom="1.644"
     inkscape:cx="-254.25791"
     inkscape:cy="208.0292"
     inkscape:window-width="3824"
     inkscape:window-height="1055"
     inkscape:window-x="6"
     inkscape:window-y="1095"
     inkscape:window-maximized="1"
     inkscape:current-layer="svg6" />
  <path
     id="path849"
     style="fill:#ac0000;fill-opacity:1;stroke-width:1.69857"
     d="M 150 0 A 150 150 0 0 0 0 150 A 150 150 0 0 0 150 300 A 150 150 0 0 0 300 150 A 150 150 0 0 0 150 0 z M 153.50781 56.009766 L 273.97852 114.14844 L 273.97852 126.99609 L 147.49414 204.72852 L 52.175781 157.98047 L 52.357422 150.78125 L 147.12891 197.4375 L 267.59961 123.44336 L 267.59961 118.1582 L 153.87305 63.298828 L 27.023438 141.75977 L 27.023438 176.84375 L 147.12891 236.25781 L 269.63281 161.11914 L 263.04297 159.98438 L 263.77148 155.51953 L 279.35547 158.16211 L 276.80273 174.10938 L 272.33789 173.38086 L 273.44141 166.42578 L 147.49414 243.54883 L 20.644531 180.85352 L 20.644531 138.20508 L 153.50781 56.009766 z " />
</svg>
