<?xml version="1.0" encoding="UTF-8" standalone="no"?>
<!-- Generator: Adobe Illustrator 21.1.0, SVG Export Plug-In . SVG Version: 6.00 Build 0)  -->

<svg
   version="1.1"
   id="Layer_1"
   x="0px"
   y="0px"
   viewBox="0 0 50.000001 50"
   xml:space="preserve"
   inkscape:version="1.1.2 (0a00cf5339, 2022-02-04, custom)"
   width="50"
   height="50"
   sodipodi:docname="rumble_original.svg"
   xmlns:inkscape="http://www.inkscape.org/namespaces/inkscape"
   xmlns:sodipodi="http://sodipodi.sourceforge.net/DTD/sodipodi-0.dtd"
   xmlns="http://www.w3.org/2000/svg"
   xmlns:svg="http://www.w3.org/2000/svg"
   xmlns:rdf="http://www.w3.org/1999/02/22-rdf-syntax-ns#"
   xmlns:cc="http://creativecommons.org/ns#"
   xmlns:dc="http://purl.org/dc/elements/1.1/"><metadata
   id="metadata17"><rdf:RDF><cc:Work
       rdf:about=""><dc:format>image/svg+xml</dc:format><dc:type
         rdf:resource="http://purl.org/dc/dcmitype/StillImage" /></cc:Work></rdf:RDF></metadata><defs
   id="defs15" /><sodipodi:namedview
   pagecolor="#ffffff"
   bordercolor="#666666"
   borderopacity="1"
   objecttolerance="10"
   gridtolerance="10"
   guidetolerance="10"
   inkscape:pageopacity="0"
   inkscape:pageshadow="2"
   inkscape:window-width="1908"
   inkscape:window-height="2118"
   id="namedview13"
   showgrid="false"
   fit-margin-top="1"
   fit-margin-left="1"
   fit-margin-right="1"
   fit-margin-bottom="1"
   inkscape:zoom="8.0893016"
   inkscape:cx="18.17215"
   inkscape:cy="33.810088"
   inkscape:window-x="1922"
   inkscape:window-y="32"
   inkscape:window-maximized="1"
   inkscape:current-layer="g3767"
   inkscape:pagecheckerboard="0" />
<style
   type="text/css"
   id="style3">
	.st0{fill:#FFFFFF;}
	.st1{fill-rule:evenodd;clip-rule:evenodd;fill:#FFFFFF;}
</style>
<g
   id="g5"
   style="fill:#699c39;fill-opacity:1"
   transform="translate(-2.2000015,-1.9634781)">
	
	
	<g
   id="g3767"
   transform="translate(1.5258789e-6)"><path
     id="path902"
     style="fill:#de0050;fill-opacity:1;stroke-width:0.892191"
     d="M 25 0 A 25 25 0 0 0 0 25 A 25 25 0 0 0 25 50 A 25 25 0 0 0 50 25 A 25 25 0 0 0 25 0 z M 18.984375 5.8457031 C 22.109896 5.7323802 26.365497 7.4296783 31.980469 10.705078 C 39.623069 15.150263 43.443359 18.737154 43.443359 22.480469 C 43.443359 23.338311 43.210242 24.196845 42.820312 25.054688 C 43.288227 25.91253 43.443359 26.847236 43.443359 27.705078 C 43.443359 31.370408 39.545083 34.957019 31.980469 39.324219 C 24.415855 43.691419 19.423836 45.252516 16.148438 43.380859 C 15.290594 42.912944 14.510605 42.132955 13.886719 41.119141 C 12.794919 41.119141 11.859796 40.807758 11.001953 40.339844 C 7.8045382 38.546172 6.5566406 33.476309 6.5566406 24.585938 C 6.5566406 15.695566 7.8826642 10.625702 11.080078 8.8320312 C 12.015907 8.2861313 13.185823 8.0528734 14.433594 8.1308594 C 14.979494 7.4289884 15.524691 6.9602405 16.226562 6.5703125 C 17.025916 6.1218948 17.942535 5.8834774 18.984375 5.8457031 z M 19.302734 7.1464844 C 18.365687 7.1562326 17.551481 7.3503057 16.849609 7.7402344 C 16.537666 7.8962054 16.30413 8.0531514 15.992188 8.2871094 C 22.15306 9.3789094 37.673538 17.957434 41.884766 23.650391 C 42.040738 23.260463 42.0392 22.792272 42.117188 22.402344 C 42.117188 19.282915 38.60814 15.930119 31.355469 11.796875 C 26.032944 8.755433 22.113876 7.1172396 19.302734 7.1464844 z M 13.652344 9.3789062 C 12.950473 9.4568864 12.249025 9.6118851 11.703125 9.9238281 C 8.973625 11.483542 7.8828125 16.163479 7.8828125 24.585938 C 7.8828125 32.930408 8.895639 37.688333 11.703125 39.248047 C 12.171039 39.482004 12.717911 39.714983 13.341797 39.792969 C 10.37834 33.866055 10.376944 14.993877 13.652344 9.3789062 z M 19.195312 12.390625 C 18.291318 12.422459 17.492991 12.606113 16.849609 12.966797 C 11.546581 15.930255 11.548388 34.022871 16.773438 36.986328 C 22.232437 40.105757 36.970703 29.343205 36.970703 24.664062 C 37.038944 19.341537 25.523276 12.167787 19.195312 12.390625 z M 20.75 20.123047 C 21.054503 20.140373 21.592518 20.459458 22.542969 20.998047 C 23.244841 21.387976 24.024691 21.856166 24.726562 22.246094 C 25.428435 22.636023 26.208285 23.104212 26.910156 23.494141 C 29.171742 24.819898 29.171742 24.742462 26.910156 25.990234 C 26.208285 26.380162 25.428434 26.848353 24.726562 27.238281 C 24.024691 27.62821 23.244841 28.094446 22.542969 28.484375 C 20.281384 29.810132 20.359375 29.889795 20.359375 27.238281 L 20.359375 24.742188 L 20.359375 22.246094 C 20.359375 20.718062 20.304957 20.097724 20.75 20.123047 z M 41.884766 26.378906 C 37.361595 32.539778 22.231884 40.183173 15.369141 41.041016 C 15.759069 41.586916 16.227538 41.97712 16.773438 42.289062 C 19.502938 43.848776 24.180644 42.365659 31.277344 38.232422 C 38.45203 34.099179 42.0392 30.824508 42.117188 27.705078 C 42.117188 27.237164 42.040734 26.846821 41.884766 26.378906 z "
     transform="translate(2.2,1.9634781)" /></g>
</g>
</svg>
